<mxfile modified="2022-05-06T02:24:14.070Z" host="app.diagrams.net" agent="5.0 (Windows NT 10.0; Win64; x64) AppleWebKit/537.36 (KHTML, like Gecko) Chrome/100.0.4896.127 Safari/537.36 Edg/100.0.1185.50" etag="pNjmzH_j2q0jd01WEM-j" compressed="false" version="17.5.0" type="google">
  <diagram id="jhtnVi6p0TdMVgAr-oG0" name="Development/Information Service/DDD/Modules/3D">
    <mxGraphModel grid="1" page="1" gridSize="10" guides="1" tooltips="1" connect="1" arrows="1" fold="1" pageScale="1" pageWidth="827" pageHeight="1169" math="0" shadow="0">
      <root>
        <mxCell id="7aSpeAAAiLF63OsOx-cl-0" />
        <mxCell id="DFlwRLDokShrW0lLWDd5-10" value="Base" style="" parent="7aSpeAAAiLF63OsOx-cl-0" />
        <mxCell id="-g6-ZXjwuCqYvXEVzjbo-3" value="g" style="group" vertex="1" connectable="0" parent="DFlwRLDokShrW0lLWDd5-10">
          <mxGeometry x="230" y="500" width="80" height="40" as="geometry" />
        </mxCell>
        <mxCell id="-g6-ZXjwuCqYvXEVzjbo-1" value="" style="group" vertex="1" connectable="0" parent="-g6-ZXjwuCqYvXEVzjbo-3">
          <mxGeometry width="80" height="40" as="geometry" />
        </mxCell>
        <mxCell id="-g6-ZXjwuCqYvXEVzjbo-0" value="" style="group" vertex="1" connectable="0" parent="-g6-ZXjwuCqYvXEVzjbo-1">
          <mxGeometry width="80" height="40" as="geometry" />
        </mxCell>
        <mxCell id="DFlwRLDokShrW0lLWDd5-176" value="" style="group;strokeWidth=1;shadow=0;comic=0;glass=0;" vertex="1" connectable="0" parent="-g6-ZXjwuCqYvXEVzjbo-0">
          <mxGeometry width="80" height="40" as="geometry" />
        </mxCell>
        <mxCell id="DFlwRLDokShrW0lLWDd5-78" value="" style="rounded=0;orthogonalLoop=1;jettySize=auto;html=1;endArrow=none;endFill=0;strokeColor=#B3B3B3;fontSize=10;fontColor=#B3B3B3;exitX=0;exitY=0;exitDx=0;exitDy=0;entryX=1.02;entryY=0.806;entryDx=0;entryDy=0;entryPerimeter=0;strokeWidth=2;" edge="1" parent="DFlwRLDokShrW0lLWDd5-176" source="DFlwRLDokShrW0lLWDd5-9">
          <mxGeometry relative="1" as="geometry">
            <mxPoint y="-3.75" as="sourcePoint" />
            <mxPoint x="6.357894736842091" y="3.2650000000000152" as="targetPoint" />
          </mxGeometry>
        </mxCell>
        <mxCell id="DFlwRLDokShrW0lLWDd5-82" value="" style="ellipse;whiteSpace=wrap;html=1;strokeColor=#B3B3B3;strokeWidth=2;fillColor=none;fontSize=10;fontColor=#B3B3B3;align=center;rotation=21;" vertex="1" parent="DFlwRLDokShrW0lLWDd5-176">
          <mxGeometry x="2.315789473684211" y="1.1250000000000002" width="4.210526315789474" height="2.2500000000000004" as="geometry" />
        </mxCell>
        <mxCell id="DFlwRLDokShrW0lLWDd5-6" value="" style="rhombus;whiteSpace=wrap;html=1;strokeColor=#666666;strokeWidth=2;fillColor=#f5f5f5;fontSize=10;fontColor=#333333;align=center;" vertex="1" parent="DFlwRLDokShrW0lLWDd5-176">
          <mxGeometry x="4.210526315789474" y="22.5" width="33.684210526315795" height="15" as="geometry" />
        </mxCell>
        <mxCell id="DFlwRLDokShrW0lLWDd5-7" value="" style="rhombus;whiteSpace=wrap;html=1;strokeColor=#666666;strokeWidth=2;fillColor=#f5f5f5;fontSize=10;fontColor=#333333;align=center;" vertex="1" parent="DFlwRLDokShrW0lLWDd5-176">
          <mxGeometry x="25.263157894736842" y="12.5" width="33.684210526315795" height="15" as="geometry" />
        </mxCell>
        <mxCell id="DFlwRLDokShrW0lLWDd5-8" value="" style="rhombus;whiteSpace=wrap;html=1;strokeColor=#666666;strokeWidth=2;fillColor=#f5f5f5;fontSize=10;fontColor=#333333;align=center;" vertex="1" parent="DFlwRLDokShrW0lLWDd5-176">
          <mxGeometry x="46.31578947368422" y="2.5" width="33.684210526315795" height="15" as="geometry" />
        </mxCell>
        <mxCell id="DFlwRLDokShrW0lLWDd5-9" value="" style="rhombus;whiteSpace=wrap;html=1;strokeColor=#666666;strokeWidth=2;fillColor=#f5f5f5;fontSize=10;fontColor=#333333;align=center;" vertex="1" parent="DFlwRLDokShrW0lLWDd5-176">
          <mxGeometry x="4.210526315789474" y="2.5" width="33.684210526315795" height="15" as="geometry" />
        </mxCell>
        <mxCell id="DFlwRLDokShrW0lLWDd5-50" value="" style="endArrow=none;html=1;strokeColor=#B3B3B3;fontSize=10;fontColor=#B3B3B3;entryX=0;entryY=1;entryDx=0;entryDy=0;exitX=0;exitY=0;exitDx=0;exitDy=0;strokeWidth=2;" edge="1" parent="DFlwRLDokShrW0lLWDd5-176" source="DFlwRLDokShrW0lLWDd5-6" target="DFlwRLDokShrW0lLWDd5-9">
          <mxGeometry width="50" height="50" relative="1" as="geometry">
            <mxPoint x="4.210526315789474" y="55" as="sourcePoint" />
            <mxPoint x="14.736842105263158" y="42.5" as="targetPoint" />
            <Array as="points">
              <mxPoint y="20" />
            </Array>
          </mxGeometry>
        </mxCell>
        <mxCell id="DFlwRLDokShrW0lLWDd5-52" value="" style="endArrow=none;html=1;strokeColor=#B3B3B3;fontSize=10;fontColor=#B3B3B3;exitX=1;exitY=0;exitDx=0;exitDy=0;strokeWidth=2;" edge="1" parent="DFlwRLDokShrW0lLWDd5-176" source="DFlwRLDokShrW0lLWDd5-9">
          <mxGeometry width="50" height="50" relative="1" as="geometry">
            <mxPoint x="2.105263157894737" y="-15" as="sourcePoint" />
            <mxPoint x="54.73684210526317" y="6.25" as="targetPoint" />
            <Array as="points">
              <mxPoint x="42.10526315789474" />
            </Array>
          </mxGeometry>
        </mxCell>
        <mxCell id="DFlwRLDokShrW0lLWDd5-53" value="" style="endArrow=none;html=1;strokeColor=#B3B3B3;fontSize=10;fontColor=#B3B3B3;entryX=0;entryY=1;entryDx=0;entryDy=0;exitX=1;exitY=0;exitDx=0;exitDy=0;strokeWidth=2;" edge="1" parent="DFlwRLDokShrW0lLWDd5-176" source="DFlwRLDokShrW0lLWDd5-6" target="DFlwRLDokShrW0lLWDd5-7">
          <mxGeometry width="50" height="50" relative="1" as="geometry">
            <mxPoint x="35.78947368421053" y="52.5" as="sourcePoint" />
            <mxPoint x="46.31578947368422" y="40" as="targetPoint" />
          </mxGeometry>
        </mxCell>
        <mxCell id="DFlwRLDokShrW0lLWDd5-56" value="" style="endArrow=none;html=1;strokeColor=#B3B3B3;fontSize=10;fontColor=#B3B3B3;exitX=1;exitY=1;exitDx=0;exitDy=0;entryX=0;entryY=0;entryDx=0;entryDy=0;" edge="1" parent="DFlwRLDokShrW0lLWDd5-176" source="DFlwRLDokShrW0lLWDd5-9" target="DFlwRLDokShrW0lLWDd5-7">
          <mxGeometry width="50" height="50" relative="1" as="geometry">
            <mxPoint x="35.78947368421053" y="-2.5" as="sourcePoint" />
            <mxPoint x="46.31578947368422" y="-15" as="targetPoint" />
          </mxGeometry>
        </mxCell>
        <mxCell id="DFlwRLDokShrW0lLWDd5-55" value="" style="endArrow=none;html=1;strokeColor=#B3B3B3;fontSize=10;fontColor=#B3B3B3;entryX=0;entryY=1;entryDx=0;entryDy=0;exitX=1;exitY=0;exitDx=0;exitDy=0;strokeWidth=2;" edge="1" parent="DFlwRLDokShrW0lLWDd5-176" source="DFlwRLDokShrW0lLWDd5-7" target="DFlwRLDokShrW0lLWDd5-8">
          <mxGeometry width="50" height="50" relative="1" as="geometry">
            <mxPoint x="50.526315789473685" y="15" as="sourcePoint" />
            <mxPoint x="52.63157894736843" y="-20" as="targetPoint" />
          </mxGeometry>
        </mxCell>
        <mxCell id="DFlwRLDokShrW0lLWDd5-245" value="Base &lt;br&gt;Module" style="text;html=1;resizable=0;points=[];autosize=1;align=center;verticalAlign=top;spacingTop=-4;fontSize=14;fontColor=#B3B3B3;fontStyle=1;rotation=-20;" vertex="1" parent="DFlwRLDokShrW0lLWDd5-176">
          <mxGeometry x="37.684210526315795" y="15" width="60" height="40" as="geometry" />
        </mxCell>
        <mxCell id="DFlwRLDokShrW0lLWDd5-12" value="Module01" style="" parent="7aSpeAAAiLF63OsOx-cl-0" />
        <mxCell id="DFlwRLDokShrW0lLWDd5-177" value="" style="group;strokeWidth=1;shadow=0;comic=0;glass=0;" vertex="1" connectable="0" parent="DFlwRLDokShrW0lLWDd5-12">
          <mxGeometry x="119" y="480" width="81" height="40" as="geometry" />
        </mxCell>
        <mxCell id="DFlwRLDokShrW0lLWDd5-178" value="" style="rounded=0;orthogonalLoop=1;jettySize=auto;html=1;endArrow=none;endFill=0;strokeColor=#B3B3B3;fontSize=10;fontColor=#B3B3B3;exitX=0;exitY=0;exitDx=0;exitDy=0;entryX=1.02;entryY=0.806;entryDx=0;entryDy=0;entryPerimeter=0;strokeWidth=2;" edge="1" parent="DFlwRLDokShrW0lLWDd5-177" source="DFlwRLDokShrW0lLWDd5-183">
          <mxGeometry relative="1" as="geometry">
            <mxPoint y="-4" as="sourcePoint" />
            <mxPoint x="6.437368421052617" y="3.482666666666683" as="targetPoint" />
          </mxGeometry>
        </mxCell>
        <mxCell id="DFlwRLDokShrW0lLWDd5-179" value="" style="ellipse;whiteSpace=wrap;html=1;strokeColor=#B3B3B3;strokeWidth=2;fillColor=none;fontSize=10;fontColor=#B3B3B3;align=center;rotation=21;" vertex="1" parent="DFlwRLDokShrW0lLWDd5-177">
          <mxGeometry x="2.3447368421052626" y="1.2" width="4.263157894736842" height="2.4" as="geometry" />
        </mxCell>
        <mxCell id="DFlwRLDokShrW0lLWDd5-180" value="" style="rhombus;whiteSpace=wrap;html=1;strokeWidth=2;fontSize=10;align=center;" vertex="1" parent="DFlwRLDokShrW0lLWDd5-177">
          <mxGeometry x="4.263157894736842" y="24.000000000000004" width="34.10526315789473" height="16" as="geometry" />
        </mxCell>
        <mxCell id="DFlwRLDokShrW0lLWDd5-181" value="" style="rhombus;whiteSpace=wrap;html=1;strokeWidth=2;fontSize=10;align=center;" vertex="1" parent="DFlwRLDokShrW0lLWDd5-177">
          <mxGeometry x="25.578947368421055" y="13.333333333333332" width="34.10526315789473" height="16" as="geometry" />
        </mxCell>
        <mxCell id="DFlwRLDokShrW0lLWDd5-182" value="" style="rhombus;whiteSpace=wrap;html=1;strokeWidth=2;fontSize=10;align=center;" vertex="1" parent="DFlwRLDokShrW0lLWDd5-177">
          <mxGeometry x="46.89473684210527" y="2.6666666666666665" width="34.10526315789473" height="16" as="geometry" />
        </mxCell>
        <mxCell id="DFlwRLDokShrW0lLWDd5-183" value="" style="rhombus;whiteSpace=wrap;html=1;strokeWidth=2;fontSize=10;align=center;" vertex="1" parent="DFlwRLDokShrW0lLWDd5-177">
          <mxGeometry x="4.263157894736842" y="2.6666666666666665" width="34.10526315789473" height="16" as="geometry" />
        </mxCell>
        <mxCell id="DFlwRLDokShrW0lLWDd5-184" value="" style="endArrow=none;html=1;strokeColor=#B3B3B3;fontSize=10;fontColor=#B3B3B3;entryX=0;entryY=1;entryDx=0;entryDy=0;exitX=0;exitY=0;exitDx=0;exitDy=0;strokeWidth=2;" edge="1" parent="DFlwRLDokShrW0lLWDd5-177" source="DFlwRLDokShrW0lLWDd5-180" target="DFlwRLDokShrW0lLWDd5-183">
          <mxGeometry width="50" height="50" relative="1" as="geometry">
            <mxPoint x="4.263157894736842" y="58.666666666666664" as="sourcePoint" />
            <mxPoint x="14.921052631578945" y="45.33333333333333" as="targetPoint" />
            <Array as="points">
              <mxPoint y="21.333333333333332" />
            </Array>
          </mxGeometry>
        </mxCell>
        <mxCell id="DFlwRLDokShrW0lLWDd5-185" value="" style="endArrow=none;html=1;strokeColor=#B3B3B3;fontSize=10;fontColor=#B3B3B3;exitX=1;exitY=0;exitDx=0;exitDy=0;strokeWidth=2;" edge="1" parent="DFlwRLDokShrW0lLWDd5-177" source="DFlwRLDokShrW0lLWDd5-183">
          <mxGeometry width="50" height="50" relative="1" as="geometry">
            <mxPoint x="2.131578947368421" y="-16" as="sourcePoint" />
            <mxPoint x="55.421052631578945" y="6.666666666666666" as="targetPoint" />
            <Array as="points">
              <mxPoint x="42.631578947368425" />
            </Array>
          </mxGeometry>
        </mxCell>
        <mxCell id="DFlwRLDokShrW0lLWDd5-186" value="" style="endArrow=none;html=1;strokeColor=#B3B3B3;fontSize=10;fontColor=#B3B3B3;entryX=0;entryY=1;entryDx=0;entryDy=0;exitX=1;exitY=0;exitDx=0;exitDy=0;strokeWidth=2;" edge="1" parent="DFlwRLDokShrW0lLWDd5-177" source="DFlwRLDokShrW0lLWDd5-180" target="DFlwRLDokShrW0lLWDd5-181">
          <mxGeometry width="50" height="50" relative="1" as="geometry">
            <mxPoint x="36.23684210526315" y="56" as="sourcePoint" />
            <mxPoint x="46.89473684210527" y="42.666666666666664" as="targetPoint" />
          </mxGeometry>
        </mxCell>
        <mxCell id="DFlwRLDokShrW0lLWDd5-187" value="" style="endArrow=none;html=1;strokeColor=#B3B3B3;fontSize=10;fontColor=#B3B3B3;exitX=1;exitY=1;exitDx=0;exitDy=0;entryX=0;entryY=0;entryDx=0;entryDy=0;" edge="1" parent="DFlwRLDokShrW0lLWDd5-177" source="DFlwRLDokShrW0lLWDd5-183" target="DFlwRLDokShrW0lLWDd5-181">
          <mxGeometry width="50" height="50" relative="1" as="geometry">
            <mxPoint x="36.23684210526315" y="-2.6666666666666665" as="sourcePoint" />
            <mxPoint x="46.89473684210527" y="-16" as="targetPoint" />
          </mxGeometry>
        </mxCell>
        <mxCell id="DFlwRLDokShrW0lLWDd5-188" value="" style="endArrow=none;html=1;strokeColor=#B3B3B3;fontSize=10;fontColor=#B3B3B3;entryX=0;entryY=1;entryDx=0;entryDy=0;exitX=1;exitY=0;exitDx=0;exitDy=0;strokeWidth=2;" edge="1" parent="DFlwRLDokShrW0lLWDd5-177" source="DFlwRLDokShrW0lLWDd5-181" target="DFlwRLDokShrW0lLWDd5-182">
          <mxGeometry width="50" height="50" relative="1" as="geometry">
            <mxPoint x="51.15789473684211" y="16" as="sourcePoint" />
            <mxPoint x="53.28947368421051" y="-21.333333333333332" as="targetPoint" />
          </mxGeometry>
        </mxCell>
        <mxCell id="DFlwRLDokShrW0lLWDd5-247" value="Module 01" style="text;html=1;resizable=0;points=[];autosize=1;align=left;verticalAlign=top;spacingTop=-4;fontSize=14;fontColor=#B3B3B3;fontStyle=1;rotation=-20;" vertex="1" parent="DFlwRLDokShrW0lLWDd5-177">
          <mxGeometry x="37.08947368421053" y="18.933333333333334" width="80" height="20" as="geometry" />
        </mxCell>
        <mxCell id="DFlwRLDokShrW0lLWDd5-38" value="Module02" style="" parent="7aSpeAAAiLF63OsOx-cl-0" />
        <mxCell id="DFlwRLDokShrW0lLWDd5-189" value="" style="group;strokeWidth=1;shadow=0;comic=0;glass=0;" vertex="1" connectable="0" parent="DFlwRLDokShrW0lLWDd5-38">
          <mxGeometry x="279" y="400" width="81" height="40" as="geometry" />
        </mxCell>
        <mxCell id="DFlwRLDokShrW0lLWDd5-190" value="" style="rounded=0;orthogonalLoop=1;jettySize=auto;html=1;endArrow=none;endFill=0;strokeColor=#B3B3B3;fontSize=10;fontColor=#B3B3B3;exitX=0;exitY=0;exitDx=0;exitDy=0;entryX=1.02;entryY=0.806;entryDx=0;entryDy=0;entryPerimeter=0;strokeWidth=2;" edge="1" parent="DFlwRLDokShrW0lLWDd5-189" source="DFlwRLDokShrW0lLWDd5-195">
          <mxGeometry relative="1" as="geometry">
            <mxPoint y="-4" as="sourcePoint" />
            <mxPoint x="5.980929095354509" y="3.4826666666666823" as="targetPoint" />
          </mxGeometry>
        </mxCell>
        <mxCell id="DFlwRLDokShrW0lLWDd5-191" value="" style="ellipse;whiteSpace=wrap;html=1;strokeColor=#B3B3B3;strokeWidth=2;fillColor=none;fontSize=10;fontColor=#B3B3B3;align=center;rotation=21;" vertex="1" parent="DFlwRLDokShrW0lLWDd5-189">
          <mxGeometry x="2.1784841075794623" y="1.2" width="3.960880195599021" height="2.4" as="geometry" />
        </mxCell>
        <mxCell id="DFlwRLDokShrW0lLWDd5-192" value="" style="rhombus;whiteSpace=wrap;html=1;strokeWidth=2;fontSize=10;align=center;" vertex="1" parent="DFlwRLDokShrW0lLWDd5-189">
          <mxGeometry x="3.960880195599021" y="24.000000000000004" width="31.687041564792167" height="16" as="geometry" />
        </mxCell>
        <mxCell id="DFlwRLDokShrW0lLWDd5-193" value="" style="rhombus;whiteSpace=wrap;html=1;strokeWidth=2;fontSize=10;align=center;" vertex="1" parent="DFlwRLDokShrW0lLWDd5-189">
          <mxGeometry x="23.765281173594126" y="13.333333333333334" width="31.687041564792167" height="16" as="geometry" />
        </mxCell>
        <mxCell id="DFlwRLDokShrW0lLWDd5-194" value="" style="rhombus;whiteSpace=wrap;html=1;strokeWidth=2;fontSize=10;align=center;" vertex="1" parent="DFlwRLDokShrW0lLWDd5-189">
          <mxGeometry x="43.569682151589234" y="2.6666666666666665" width="31.687041564792167" height="16" as="geometry" />
        </mxCell>
        <mxCell id="DFlwRLDokShrW0lLWDd5-195" value="" style="rhombus;whiteSpace=wrap;html=1;strokeWidth=2;fontSize=10;align=center;" vertex="1" parent="DFlwRLDokShrW0lLWDd5-189">
          <mxGeometry x="3.960880195599021" y="2.6666666666666665" width="31.687041564792167" height="16" as="geometry" />
        </mxCell>
        <mxCell id="DFlwRLDokShrW0lLWDd5-196" value="" style="endArrow=none;html=1;strokeColor=#B3B3B3;fontSize=10;fontColor=#B3B3B3;entryX=0;entryY=1;entryDx=0;entryDy=0;exitX=0;exitY=0;exitDx=0;exitDy=0;strokeWidth=2;" edge="1" parent="DFlwRLDokShrW0lLWDd5-189" source="DFlwRLDokShrW0lLWDd5-192" target="DFlwRLDokShrW0lLWDd5-195">
          <mxGeometry width="50" height="50" relative="1" as="geometry">
            <mxPoint x="3.960880195599021" y="58.66666666666667" as="sourcePoint" />
            <mxPoint x="13.863080684596577" y="45.33333333333333" as="targetPoint" />
            <Array as="points">
              <mxPoint y="21.333333333333332" />
            </Array>
          </mxGeometry>
        </mxCell>
        <mxCell id="DFlwRLDokShrW0lLWDd5-197" value="" style="endArrow=none;html=1;strokeColor=#B3B3B3;fontSize=10;fontColor=#B3B3B3;exitX=1;exitY=0;exitDx=0;exitDy=0;strokeWidth=2;" edge="1" parent="DFlwRLDokShrW0lLWDd5-189" source="DFlwRLDokShrW0lLWDd5-195">
          <mxGeometry width="50" height="50" relative="1" as="geometry">
            <mxPoint x="1.9804400977995105" y="-16" as="sourcePoint" />
            <mxPoint x="51.49144254278728" y="6.666666666666667" as="targetPoint" />
            <Array as="points">
              <mxPoint x="39.608801955990224" />
            </Array>
          </mxGeometry>
        </mxCell>
        <mxCell id="DFlwRLDokShrW0lLWDd5-198" value="" style="endArrow=none;html=1;strokeColor=#B3B3B3;fontSize=10;fontColor=#B3B3B3;entryX=0;entryY=1;entryDx=0;entryDy=0;exitX=1;exitY=0;exitDx=0;exitDy=0;strokeWidth=2;" edge="1" parent="DFlwRLDokShrW0lLWDd5-189" source="DFlwRLDokShrW0lLWDd5-192" target="DFlwRLDokShrW0lLWDd5-193">
          <mxGeometry width="50" height="50" relative="1" as="geometry">
            <mxPoint x="33.667481662591676" y="56" as="sourcePoint" />
            <mxPoint x="43.569682151589234" y="42.666666666666664" as="targetPoint" />
          </mxGeometry>
        </mxCell>
        <mxCell id="DFlwRLDokShrW0lLWDd5-199" value="" style="endArrow=none;html=1;strokeColor=#B3B3B3;fontSize=10;fontColor=#B3B3B3;exitX=1;exitY=1;exitDx=0;exitDy=0;entryX=0;entryY=0;entryDx=0;entryDy=0;" edge="1" parent="DFlwRLDokShrW0lLWDd5-189" source="DFlwRLDokShrW0lLWDd5-195" target="DFlwRLDokShrW0lLWDd5-193">
          <mxGeometry width="50" height="50" relative="1" as="geometry">
            <mxPoint x="33.667481662591676" y="-2.6666666666666665" as="sourcePoint" />
            <mxPoint x="43.569682151589234" y="-16" as="targetPoint" />
          </mxGeometry>
        </mxCell>
        <mxCell id="DFlwRLDokShrW0lLWDd5-200" value="" style="endArrow=none;html=1;strokeColor=#B3B3B3;fontSize=10;fontColor=#B3B3B3;entryX=0;entryY=1;entryDx=0;entryDy=0;exitX=1;exitY=0;exitDx=0;exitDy=0;strokeWidth=2;" edge="1" parent="DFlwRLDokShrW0lLWDd5-189" source="DFlwRLDokShrW0lLWDd5-193" target="DFlwRLDokShrW0lLWDd5-194">
          <mxGeometry width="50" height="50" relative="1" as="geometry">
            <mxPoint x="47.53056234718825" y="16" as="sourcePoint" />
            <mxPoint x="49.51100244498775" y="-21.333333333333332" as="targetPoint" />
          </mxGeometry>
        </mxCell>
        <mxCell id="DFlwRLDokShrW0lLWDd5-248" value="Module 02" style="text;html=1;resizable=0;points=[];autosize=1;align=left;verticalAlign=top;spacingTop=-4;fontSize=14;fontColor=#B3B3B3;fontStyle=1;rotation=-25;" vertex="1" parent="DFlwRLDokShrW0lLWDd5-189">
          <mxGeometry x="35.053789731051346" y="19.2" width="80" height="20" as="geometry" />
        </mxCell>
        <mxCell id="DFlwRLDokShrW0lLWDd5-157" value="Module03" style="" parent="7aSpeAAAiLF63OsOx-cl-0" />
        <mxCell id="DFlwRLDokShrW0lLWDd5-201" value="" style="group;strokeWidth=1;shadow=0;comic=0;glass=0;" vertex="1" connectable="0" parent="DFlwRLDokShrW0lLWDd5-157">
          <mxGeometry x="360" y="350" width="70" height="40" as="geometry" />
        </mxCell>
        <mxCell id="DFlwRLDokShrW0lLWDd5-202" value="" style="rounded=0;orthogonalLoop=1;jettySize=auto;html=1;endArrow=none;endFill=0;strokeColor=#B3B3B3;fontSize=10;fontColor=#B3B3B3;exitX=0;exitY=0;exitDx=0;exitDy=0;entryX=1.02;entryY=0.806;entryDx=0;entryDy=0;entryPerimeter=0;strokeWidth=2;" edge="1" parent="DFlwRLDokShrW0lLWDd5-201" source="DFlwRLDokShrW0lLWDd5-207">
          <mxGeometry relative="1" as="geometry">
            <mxPoint y="-4.000000000000001" as="sourcePoint" />
            <mxPoint x="5.56315789473683" y="3.4826666666666832" as="targetPoint" />
          </mxGeometry>
        </mxCell>
        <mxCell id="DFlwRLDokShrW0lLWDd5-203" value="" style="ellipse;whiteSpace=wrap;html=1;strokeColor=#B3B3B3;strokeWidth=2;fillColor=none;fontSize=10;fontColor=#B3B3B3;align=center;rotation=21;" vertex="1" parent="DFlwRLDokShrW0lLWDd5-201">
          <mxGeometry x="2.026315789473684" y="1.2000000000000002" width="3.6842105263157894" height="2.4000000000000004" as="geometry" />
        </mxCell>
        <mxCell id="DFlwRLDokShrW0lLWDd5-204" value="" style="rhombus;whiteSpace=wrap;html=1;strokeWidth=2;fontSize=10;align=center;" vertex="1" parent="DFlwRLDokShrW0lLWDd5-201">
          <mxGeometry x="3.6842105263157894" y="24" width="29.473684210526315" height="16.000000000000004" as="geometry" />
        </mxCell>
        <mxCell id="DFlwRLDokShrW0lLWDd5-205" value="" style="rhombus;whiteSpace=wrap;html=1;strokeWidth=2;fontSize=10;align=center;" vertex="1" parent="DFlwRLDokShrW0lLWDd5-201">
          <mxGeometry x="22.105263157894736" y="13.333333333333336" width="29.473684210526315" height="16.000000000000004" as="geometry" />
        </mxCell>
        <mxCell id="DFlwRLDokShrW0lLWDd5-206" value="" style="rhombus;whiteSpace=wrap;html=1;strokeWidth=2;fontSize=10;align=center;" vertex="1" parent="DFlwRLDokShrW0lLWDd5-201">
          <mxGeometry x="40.52631578947368" y="2.666666666666668" width="29.473684210526315" height="16.000000000000004" as="geometry" />
        </mxCell>
        <mxCell id="DFlwRLDokShrW0lLWDd5-207" value="" style="rhombus;whiteSpace=wrap;html=1;strokeWidth=2;fontSize=10;align=center;" vertex="1" parent="DFlwRLDokShrW0lLWDd5-201">
          <mxGeometry x="3.6842105263157894" y="2.666666666666668" width="29.473684210526315" height="16.000000000000004" as="geometry" />
        </mxCell>
        <mxCell id="DFlwRLDokShrW0lLWDd5-208" value="" style="endArrow=none;html=1;strokeColor=#B3B3B3;fontSize=10;fontColor=#B3B3B3;entryX=0;entryY=1;entryDx=0;entryDy=0;exitX=0;exitY=0;exitDx=0;exitDy=0;strokeWidth=2;" edge="1" parent="DFlwRLDokShrW0lLWDd5-201" source="DFlwRLDokShrW0lLWDd5-204" target="DFlwRLDokShrW0lLWDd5-207">
          <mxGeometry width="50" height="50" relative="1" as="geometry">
            <mxPoint x="3.6842105263157894" y="58.66666666666668" as="sourcePoint" />
            <mxPoint x="12.894736842105264" y="45.33333333333334" as="targetPoint" />
            <Array as="points">
              <mxPoint y="21.333333333333343" />
            </Array>
          </mxGeometry>
        </mxCell>
        <mxCell id="DFlwRLDokShrW0lLWDd5-209" value="" style="endArrow=none;html=1;strokeColor=#B3B3B3;fontSize=10;fontColor=#B3B3B3;exitX=1;exitY=0;exitDx=0;exitDy=0;strokeWidth=2;" edge="1" parent="DFlwRLDokShrW0lLWDd5-201" source="DFlwRLDokShrW0lLWDd5-207">
          <mxGeometry width="50" height="50" relative="1" as="geometry">
            <mxPoint x="1.8421052631578947" y="-16.000000000000004" as="sourcePoint" />
            <mxPoint x="47.89473684210526" y="6.666666666666668" as="targetPoint" />
            <Array as="points">
              <mxPoint x="36.8421052631579" />
            </Array>
          </mxGeometry>
        </mxCell>
        <mxCell id="DFlwRLDokShrW0lLWDd5-210" value="" style="endArrow=none;html=1;strokeColor=#B3B3B3;fontSize=10;fontColor=#B3B3B3;entryX=0;entryY=1;entryDx=0;entryDy=0;exitX=1;exitY=0;exitDx=0;exitDy=0;strokeWidth=2;" edge="1" parent="DFlwRLDokShrW0lLWDd5-201" source="DFlwRLDokShrW0lLWDd5-204" target="DFlwRLDokShrW0lLWDd5-205">
          <mxGeometry width="50" height="50" relative="1" as="geometry">
            <mxPoint x="31.315789473684212" y="56" as="sourcePoint" />
            <mxPoint x="40.52631578947368" y="42.666666666666686" as="targetPoint" />
          </mxGeometry>
        </mxCell>
        <mxCell id="DFlwRLDokShrW0lLWDd5-211" value="" style="endArrow=none;html=1;strokeColor=#B3B3B3;fontSize=10;fontColor=#B3B3B3;exitX=1;exitY=1;exitDx=0;exitDy=0;entryX=0;entryY=0;entryDx=0;entryDy=0;" edge="1" parent="DFlwRLDokShrW0lLWDd5-201" source="DFlwRLDokShrW0lLWDd5-207" target="DFlwRLDokShrW0lLWDd5-205">
          <mxGeometry width="50" height="50" relative="1" as="geometry">
            <mxPoint x="31.315789473684212" y="-2.666666666666668" as="sourcePoint" />
            <mxPoint x="40.52631578947368" y="-16.000000000000004" as="targetPoint" />
          </mxGeometry>
        </mxCell>
        <mxCell id="DFlwRLDokShrW0lLWDd5-212" value="" style="endArrow=none;html=1;strokeColor=#B3B3B3;fontSize=10;fontColor=#B3B3B3;entryX=0;entryY=1;entryDx=0;entryDy=0;exitX=1;exitY=0;exitDx=0;exitDy=0;strokeWidth=2;" edge="1" parent="DFlwRLDokShrW0lLWDd5-201" source="DFlwRLDokShrW0lLWDd5-205" target="DFlwRLDokShrW0lLWDd5-206">
          <mxGeometry width="50" height="50" relative="1" as="geometry">
            <mxPoint x="44.21052631578947" y="16.000000000000004" as="sourcePoint" />
            <mxPoint x="46.05263157894737" y="-21.333333333333343" as="targetPoint" />
          </mxGeometry>
        </mxCell>
        <mxCell id="DFlwRLDokShrW0lLWDd5-249" value="Module 03" style="text;html=1;resizable=0;points=[];autosize=1;align=left;verticalAlign=top;spacingTop=-4;fontSize=14;fontColor=#B3B3B3;fontStyle=1;rotation=-20;" vertex="1" parent="DFlwRLDokShrW0lLWDd5-201">
          <mxGeometry x="32.23684210526316" y="19.200000000000003" width="80" height="20" as="geometry" />
        </mxCell>
        <mxCell id="DFlwRLDokShrW0lLWDd5-243" value="Module04" style="" parent="7aSpeAAAiLF63OsOx-cl-0" />
        <mxCell id="DFlwRLDokShrW0lLWDd5-215" value="" style="group;strokeWidth=1;shadow=0;comic=0;glass=0;" vertex="1" connectable="0" parent="DFlwRLDokShrW0lLWDd5-243">
          <mxGeometry x="160" y="370" width="80" height="40" as="geometry" />
        </mxCell>
        <mxCell id="DFlwRLDokShrW0lLWDd5-216" value="" style="rounded=0;orthogonalLoop=1;jettySize=auto;html=1;endArrow=none;endFill=0;strokeColor=#B3B3B3;fontSize=10;fontColor=#B3B3B3;exitX=0;exitY=0;exitDx=0;exitDy=0;entryX=1.02;entryY=0.806;entryDx=0;entryDy=0;entryPerimeter=0;strokeWidth=2;" edge="1" parent="DFlwRLDokShrW0lLWDd5-215" source="DFlwRLDokShrW0lLWDd5-221">
          <mxGeometry relative="1" as="geometry">
            <mxPoint y="-3.999999999999999" as="sourcePoint" />
            <mxPoint x="6.357894736842091" y="3.4826666666666815" as="targetPoint" />
          </mxGeometry>
        </mxCell>
        <mxCell id="DFlwRLDokShrW0lLWDd5-217" value="" style="ellipse;whiteSpace=wrap;html=1;strokeColor=#B3B3B3;strokeWidth=2;fillColor=none;fontSize=10;fontColor=#B3B3B3;align=center;rotation=21;" vertex="1" parent="DFlwRLDokShrW0lLWDd5-215">
          <mxGeometry x="2.315789473684211" y="1.1999999999999997" width="4.210526315789474" height="2.3999999999999995" as="geometry" />
        </mxCell>
        <mxCell id="DFlwRLDokShrW0lLWDd5-218" value="" style="rhombus;whiteSpace=wrap;html=1;strokeWidth=2;fontSize=10;align=center;" vertex="1" parent="DFlwRLDokShrW0lLWDd5-215">
          <mxGeometry x="4.210526315789474" y="23.99999999999999" width="33.684210526315795" height="15.999999999999996" as="geometry" />
        </mxCell>
        <mxCell id="DFlwRLDokShrW0lLWDd5-219" value="" style="rhombus;whiteSpace=wrap;html=1;strokeWidth=2;fontSize=10;align=center;" vertex="1" parent="DFlwRLDokShrW0lLWDd5-215">
          <mxGeometry x="25.263157894736846" y="13.33333333333333" width="33.684210526315795" height="15.999999999999996" as="geometry" />
        </mxCell>
        <mxCell id="DFlwRLDokShrW0lLWDd5-220" value="" style="rhombus;whiteSpace=wrap;html=1;strokeWidth=2;fontSize=10;align=center;" vertex="1" parent="DFlwRLDokShrW0lLWDd5-215">
          <mxGeometry x="46.31578947368422" y="2.666666666666666" width="33.684210526315795" height="15.999999999999996" as="geometry" />
        </mxCell>
        <mxCell id="DFlwRLDokShrW0lLWDd5-221" value="" style="rhombus;whiteSpace=wrap;html=1;strokeWidth=2;fontSize=10;align=center;" vertex="1" parent="DFlwRLDokShrW0lLWDd5-215">
          <mxGeometry x="4.210526315789474" y="2.666666666666666" width="33.684210526315795" height="15.999999999999996" as="geometry" />
        </mxCell>
        <mxCell id="DFlwRLDokShrW0lLWDd5-222" value="" style="endArrow=none;html=1;strokeColor=#B3B3B3;fontSize=10;fontColor=#B3B3B3;entryX=0;entryY=1;entryDx=0;entryDy=0;exitX=0;exitY=0;exitDx=0;exitDy=0;strokeWidth=2;" edge="1" parent="DFlwRLDokShrW0lLWDd5-215" source="DFlwRLDokShrW0lLWDd5-218" target="DFlwRLDokShrW0lLWDd5-221">
          <mxGeometry width="50" height="50" relative="1" as="geometry">
            <mxPoint x="4.210526315789474" y="58.66666666666666" as="sourcePoint" />
            <mxPoint x="14.73684210526316" y="45.333333333333314" as="targetPoint" />
            <Array as="points">
              <mxPoint y="21.33333333333333" />
            </Array>
          </mxGeometry>
        </mxCell>
        <mxCell id="DFlwRLDokShrW0lLWDd5-223" value="" style="endArrow=none;html=1;strokeColor=#B3B3B3;fontSize=10;fontColor=#B3B3B3;exitX=1;exitY=0;exitDx=0;exitDy=0;strokeWidth=2;" edge="1" parent="DFlwRLDokShrW0lLWDd5-215" source="DFlwRLDokShrW0lLWDd5-221">
          <mxGeometry width="50" height="50" relative="1" as="geometry">
            <mxPoint x="2.105263157894737" y="-15.999999999999996" as="sourcePoint" />
            <mxPoint x="54.73684210526316" y="6.666666666666665" as="targetPoint" />
            <Array as="points">
              <mxPoint x="42.10526315789474" />
            </Array>
          </mxGeometry>
        </mxCell>
        <mxCell id="DFlwRLDokShrW0lLWDd5-224" value="" style="endArrow=none;html=1;strokeColor=#B3B3B3;fontSize=10;fontColor=#B3B3B3;entryX=0;entryY=1;entryDx=0;entryDy=0;exitX=1;exitY=0;exitDx=0;exitDy=0;strokeWidth=2;" edge="1" parent="DFlwRLDokShrW0lLWDd5-215" source="DFlwRLDokShrW0lLWDd5-218" target="DFlwRLDokShrW0lLWDd5-219">
          <mxGeometry width="50" height="50" relative="1" as="geometry">
            <mxPoint x="35.78947368421053" y="55.999999999999986" as="sourcePoint" />
            <mxPoint x="46.31578947368422" y="42.66666666666666" as="targetPoint" />
          </mxGeometry>
        </mxCell>
        <mxCell id="DFlwRLDokShrW0lLWDd5-225" value="" style="endArrow=none;html=1;strokeColor=#B3B3B3;fontSize=10;fontColor=#B3B3B3;exitX=1;exitY=1;exitDx=0;exitDy=0;entryX=0;entryY=0;entryDx=0;entryDy=0;" edge="1" parent="DFlwRLDokShrW0lLWDd5-215" source="DFlwRLDokShrW0lLWDd5-221" target="DFlwRLDokShrW0lLWDd5-219">
          <mxGeometry width="50" height="50" relative="1" as="geometry">
            <mxPoint x="35.78947368421053" y="-2.666666666666666" as="sourcePoint" />
            <mxPoint x="46.31578947368422" y="-15.999999999999996" as="targetPoint" />
          </mxGeometry>
        </mxCell>
        <mxCell id="DFlwRLDokShrW0lLWDd5-226" value="" style="endArrow=none;html=1;strokeColor=#B3B3B3;fontSize=10;fontColor=#B3B3B3;entryX=0;entryY=1;entryDx=0;entryDy=0;exitX=1;exitY=0;exitDx=0;exitDy=0;strokeWidth=2;" edge="1" parent="DFlwRLDokShrW0lLWDd5-215" source="DFlwRLDokShrW0lLWDd5-219" target="DFlwRLDokShrW0lLWDd5-220">
          <mxGeometry width="50" height="50" relative="1" as="geometry">
            <mxPoint x="50.52631578947369" y="15.999999999999996" as="sourcePoint" />
            <mxPoint x="52.631578947368425" y="-21.33333333333333" as="targetPoint" />
          </mxGeometry>
        </mxCell>
        <mxCell id="DFlwRLDokShrW0lLWDd5-250" value="Module 04" style="text;html=1;resizable=0;points=[];autosize=1;align=left;verticalAlign=top;spacingTop=-4;fontSize=14;fontColor=#B3B3B3;fontStyle=1;rotation=-20;" vertex="1" parent="DFlwRLDokShrW0lLWDd5-215">
          <mxGeometry x="37.68421052631579" y="19.199999999999996" width="80" height="20" as="geometry" />
        </mxCell>
        <mxCell id="DFlwRLDokShrW0lLWDd5-244" value="Vertical Connectors" style="" parent="7aSpeAAAiLF63OsOx-cl-0" />
        <mxCell id="DFlwRLDokShrW0lLWDd5-231" value="" style="endArrow=none;html=1;strokeColor=#10739e;strokeWidth=4;fontSize=10;fontColor=#B3B3B3;entryX=1;entryY=1;entryDx=0;entryDy=0;exitX=0;exitY=0;exitDx=0;exitDy=0;dashed=1;fillColor=#b1ddf0;dashPattern=1 1;" edge="1" parent="DFlwRLDokShrW0lLWDd5-244" source="DFlwRLDokShrW0lLWDd5-180" target="DFlwRLDokShrW0lLWDd5-218">
          <mxGeometry width="50" height="50" relative="1" as="geometry">
            <mxPoint x="129" y="860.5" as="sourcePoint" />
            <mxPoint x="179" y="810.5" as="targetPoint" />
          </mxGeometry>
        </mxCell>
        <mxCell id="DFlwRLDokShrW0lLWDd5-232" value="" style="endArrow=none;html=1;strokeColor=#10739e;strokeWidth=4;fontSize=10;fontColor=#B3B3B3;entryX=1;entryY=1;entryDx=0;entryDy=0;exitX=0;exitY=0;exitDx=0;exitDy=0;dashed=1;fillColor=#b1ddf0;dashPattern=1 1;" edge="1" parent="DFlwRLDokShrW0lLWDd5-244" source="DFlwRLDokShrW0lLWDd5-181" target="DFlwRLDokShrW0lLWDd5-219">
          <mxGeometry width="50" height="50" relative="1" as="geometry">
            <mxPoint x="129" y="630.5" as="sourcePoint" />
            <mxPoint x="240" y="429" as="targetPoint" />
          </mxGeometry>
        </mxCell>
        <mxCell id="DFlwRLDokShrW0lLWDd5-240" value="" style="endArrow=none;html=1;strokeColor=#10739e;strokeWidth=4;fontSize=10;fontColor=#B3B3B3;entryX=0;entryY=0;entryDx=0;entryDy=0;dashed=1;exitX=1;exitY=1;exitDx=0;exitDy=0;fillColor=#b1ddf0;dashPattern=1 1;" edge="1" parent="DFlwRLDokShrW0lLWDd5-244" source="DFlwRLDokShrW0lLWDd5-218" target="DFlwRLDokShrW0lLWDd5-192">
          <mxGeometry width="50" height="50" relative="1" as="geometry">
            <mxPoint x="229" y="420.5" as="sourcePoint" />
            <mxPoint x="440" y="635.5" as="targetPoint" />
          </mxGeometry>
        </mxCell>
        <mxCell id="DFlwRLDokShrW0lLWDd5-241" value="" style="endArrow=none;html=1;strokeColor=#10739e;strokeWidth=4;fontSize=10;fontColor=#B3B3B3;entryX=0;entryY=0;entryDx=0;entryDy=0;exitX=1;exitY=1;exitDx=0;exitDy=0;dashed=1;fillColor=#b1ddf0;dashPattern=1 1;" edge="1" parent="DFlwRLDokShrW0lLWDd5-244" source="DFlwRLDokShrW0lLWDd5-219" target="DFlwRLDokShrW0lLWDd5-193">
          <mxGeometry width="50" height="50" relative="1" as="geometry">
            <mxPoint x="239" y="430.5" as="sourcePoint" />
            <mxPoint x="440" y="505.5" as="targetPoint" />
          </mxGeometry>
        </mxCell>
        <mxCell id="DFlwRLDokShrW0lLWDd5-242" value="" style="endArrow=none;html=1;strokeColor=#10739e;strokeWidth=4;fontSize=10;fontColor=#B3B3B3;entryX=0;entryY=0;entryDx=0;entryDy=0;exitX=1;exitY=1;exitDx=0;exitDy=0;dashed=1;fillColor=#b1ddf0;dashPattern=1 1;" edge="1" parent="DFlwRLDokShrW0lLWDd5-244" source="DFlwRLDokShrW0lLWDd5-220" target="DFlwRLDokShrW0lLWDd5-194">
          <mxGeometry width="50" height="50" relative="1" as="geometry">
            <mxPoint x="340" y="389" as="sourcePoint" />
            <mxPoint x="540" y="465.5" as="targetPoint" />
          </mxGeometry>
        </mxCell>
        <mxCell id="DFlwRLDokShrW0lLWDd5-228" value="" style="endArrow=none;html=1;strokeColor=#10739e;strokeWidth=4;fontSize=10;fontColor=#B3B3B3;entryX=0;entryY=0;entryDx=0;entryDy=0;exitX=1;exitY=1;exitDx=0;exitDy=0;dashed=1;fillColor=#b1ddf0;dashPattern=1 1;" edge="1" parent="DFlwRLDokShrW0lLWDd5-244" source="DFlwRLDokShrW0lLWDd5-180" target="DFlwRLDokShrW0lLWDd5-6">
          <mxGeometry width="50" height="50" relative="1" as="geometry">
            <mxPoint x="59" y="740.5" as="sourcePoint" />
            <mxPoint x="109" y="690.5" as="targetPoint" />
          </mxGeometry>
        </mxCell>
        <mxCell id="DFlwRLDokShrW0lLWDd5-234" value="" style="endArrow=none;html=1;strokeColor=#10739e;strokeWidth=4;fontSize=10;fontColor=#B3B3B3;entryX=0;entryY=0;entryDx=0;entryDy=0;exitX=1;exitY=1;exitDx=0;exitDy=0;dashed=1;fillColor=#b1ddf0;dashPattern=1 1;" edge="1" parent="DFlwRLDokShrW0lLWDd5-244" source="DFlwRLDokShrW0lLWDd5-181" target="DFlwRLDokShrW0lLWDd5-7">
          <mxGeometry width="50" height="50" relative="1" as="geometry">
            <mxPoint x="209" y="660.5" as="sourcePoint" />
            <mxPoint x="440" y="635.5" as="targetPoint" />
          </mxGeometry>
        </mxCell>
        <mxCell id="DFlwRLDokShrW0lLWDd5-236" value="" style="endArrow=none;html=1;strokeColor=#10739e;strokeWidth=4;fontSize=10;fontColor=#B3B3B3;entryX=0;entryY=0;entryDx=0;entryDy=0;exitX=1;exitY=1;exitDx=0;exitDy=0;dashed=1;fillColor=#b1ddf0;dashPattern=1 1;" edge="1" parent="DFlwRLDokShrW0lLWDd5-244" source="DFlwRLDokShrW0lLWDd5-193" target="DFlwRLDokShrW0lLWDd5-7">
          <mxGeometry width="50" height="50" relative="1" as="geometry">
            <mxPoint x="409" y="580.5" as="sourcePoint" />
            <mxPoint x="640" y="555.5" as="targetPoint" />
          </mxGeometry>
        </mxCell>
        <mxCell id="DFlwRLDokShrW0lLWDd5-230" value="" style="endArrow=none;html=1;strokeColor=#10739e;strokeWidth=4;fontSize=10;fontColor=#B3B3B3;entryX=0;entryY=0;entryDx=0;entryDy=0;exitX=0.705;exitY=0.788;exitDx=0;exitDy=0;exitPerimeter=0;dashed=1;fillColor=#b1ddf0;dashPattern=1 1;" edge="1" parent="DFlwRLDokShrW0lLWDd5-244" source="DFlwRLDokShrW0lLWDd5-204" target="DFlwRLDokShrW0lLWDd5-6">
          <mxGeometry width="50" height="50" relative="1" as="geometry">
            <mxPoint x="520" y="535.5" as="sourcePoint" />
            <mxPoint x="440" y="635.5" as="targetPoint" />
          </mxGeometry>
        </mxCell>
        <mxCell id="DFlwRLDokShrW0lLWDd5-238" value="" style="endArrow=none;html=1;strokeColor=#10739e;strokeWidth=4;fontSize=10;fontColor=#B3B3B3;entryX=0;entryY=0;entryDx=0;entryDy=0;exitX=1;exitY=1;exitDx=0;exitDy=0;dashed=1;fillColor=#b1ddf0;dashPattern=1 1;" edge="1" parent="DFlwRLDokShrW0lLWDd5-244" source="DFlwRLDokShrW0lLWDd5-205" target="DFlwRLDokShrW0lLWDd5-7">
          <mxGeometry width="50" height="50" relative="1" as="geometry">
            <mxPoint x="720" y="455.5" as="sourcePoint" />
            <mxPoint x="640" y="555.5" as="targetPoint" />
          </mxGeometry>
        </mxCell>
        <mxCell id="DFlwRLDokShrW0lLWDd5-237" value="" style="endArrow=none;html=1;strokeColor=#10739e;strokeWidth=4;fontSize=10;fontColor=#B3B3B3;entryX=0;entryY=0;entryDx=0;entryDy=0;exitX=1;exitY=1;exitDx=0;exitDy=0;dashed=1;fillColor=#b1ddf0;dashPattern=1 1;" edge="1" parent="DFlwRLDokShrW0lLWDd5-244" source="DFlwRLDokShrW0lLWDd5-194" target="DFlwRLDokShrW0lLWDd5-8">
          <mxGeometry width="50" height="50" relative="1" as="geometry">
            <mxPoint x="620" y="495.5" as="sourcePoint" />
            <mxPoint x="540" y="595.5" as="targetPoint" />
          </mxGeometry>
        </mxCell>
        <mxCell id="DFlwRLDokShrW0lLWDd5-239" value="" style="endArrow=none;html=1;strokeColor=#10739e;strokeWidth=4;fontSize=10;fontColor=#B3B3B3;exitX=1;exitY=1;exitDx=0;exitDy=0;entryX=0;entryY=0;entryDx=0;entryDy=0;dashed=1;fillColor=#b1ddf0;dashPattern=1 1;" edge="1" parent="DFlwRLDokShrW0lLWDd5-244" source="DFlwRLDokShrW0lLWDd5-206" target="DFlwRLDokShrW0lLWDd5-8">
          <mxGeometry width="50" height="50" relative="1" as="geometry">
            <mxPoint x="931" y="374" as="sourcePoint" />
            <mxPoint x="869" y="590.5" as="targetPoint" />
          </mxGeometry>
        </mxCell>
        <mxCell id="DFlwRLDokShrW0lLWDd5-235" value="" style="endArrow=none;html=1;strokeColor=#10739e;strokeWidth=4;fontSize=10;fontColor=#B3B3B3;entryX=0;entryY=0;entryDx=0;entryDy=0;exitX=1;exitY=1;exitDx=0;exitDy=0;dashed=1;fillColor=#b1ddf0;dashPattern=1 1;" edge="1" parent="DFlwRLDokShrW0lLWDd5-244" source="DFlwRLDokShrW0lLWDd5-182" target="DFlwRLDokShrW0lLWDd5-8">
          <mxGeometry width="50" height="50" relative="1" as="geometry">
            <mxPoint x="309" y="620.5" as="sourcePoint" />
            <mxPoint x="540" y="595.5" as="targetPoint" />
          </mxGeometry>
        </mxCell>
        <mxCell id="DFlwRLDokShrW0lLWDd5-229" value="" style="endArrow=none;html=1;strokeColor=#10739e;strokeWidth=4;fontSize=10;fontColor=#B3B3B3;entryX=0;entryY=0;entryDx=0;entryDy=0;exitX=1;exitY=1;exitDx=0;exitDy=0;dashed=1;fillColor=#b1ddf0;dashPattern=1 1;" edge="1" parent="DFlwRLDokShrW0lLWDd5-244" source="DFlwRLDokShrW0lLWDd5-192" target="DFlwRLDokShrW0lLWDd5-6">
          <mxGeometry width="50" height="50" relative="1" as="geometry">
            <mxPoint x="209" y="660.5" as="sourcePoint" />
            <mxPoint x="440" y="635.5" as="targetPoint" />
          </mxGeometry>
        </mxCell>
        <mxCell id="DFlwRLDokShrW0lLWDd5-233" value="" style="endArrow=none;html=1;strokeColor=#10739e;strokeWidth=4;fontSize=10;fontColor=#B3B3B3;entryX=1;entryY=1;entryDx=0;entryDy=0;dashed=1;fillColor=#b1ddf0;dashPattern=1 1;exitX=0;exitY=0;exitDx=0;exitDy=0;" edge="1" parent="DFlwRLDokShrW0lLWDd5-244" source="DFlwRLDokShrW0lLWDd5-182" target="DFlwRLDokShrW0lLWDd5-220">
          <mxGeometry width="50" height="50" relative="1" as="geometry">
            <mxPoint x="319" y="540.5" as="sourcePoint" />
            <mxPoint x="340" y="389" as="targetPoint" />
          </mxGeometry>
        </mxCell>
        <mxCell id="cRdDGdkHSjeA-h-rfshC-0" value="Instructions" style="" parent="7aSpeAAAiLF63OsOx-cl-0" />
        <mxCell id="T1WR9YVkstTIkw9Bh6QR-3" value="&lt;font color=&quot;#000000&quot;&gt;Custom modules are most often parallel to each other, &lt;br&gt;sharing nothing but Core Module models and services,&amp;nbsp;&lt;br&gt;but can also be stacked, reusing models and services&lt;br&gt;from one or more other custom modules..&amp;nbsp;&lt;br&gt;&lt;/font&gt;" style="text;html=1;resizable=0;points=[];autosize=1;align=left;verticalAlign=top;spacingTop=-4;fontSize=14;fontColor=#B3B3B3;" vertex="1" parent="cRdDGdkHSjeA-h-rfshC-0">
          <mxGeometry x="320" y="200" width="360" height="70" as="geometry" />
        </mxCell>
        <mxCell id="ByNNlt341KOJ8Q6mUIUW-0" value="Title/Diagram" parent="7aSpeAAAiLF63OsOx-cl-0" />
        <mxCell id="ByNNlt341KOJ8Q6mUIUW-1" value="&lt;font style=&quot;font-size: 12px ; font-weight: normal&quot;&gt;&lt;i&gt;Diagram: Base System Logical Module - Development - Domain Driven Development - Modules&lt;/i&gt;&lt;/font&gt;" style="text;strokeColor=none;fillColor=none;html=1;fontSize=12;fontStyle=1;verticalAlign=middle;align=left;shadow=0;glass=0;comic=0;opacity=30;fontColor=#808080;" vertex="1" parent="ByNNlt341KOJ8Q6mUIUW-0">
          <mxGeometry x="120" y="580" width="560" height="20" as="geometry" />
        </mxCell>
        <mxCell id="ByNNlt341KOJ8Q6mUIUW-2" value="Title/Page" visible="0" parent="7aSpeAAAiLF63OsOx-cl-0" />
        <mxCell id="T1WR9YVkstTIkw9Bh6QR-1" value="&lt;font style=&quot;font-size: 12px;&quot;&gt;Base Logical Module - Development - Domain Driven Development - Modules&lt;/font&gt;" style="text;strokeColor=none;fillColor=none;html=1;fontSize=12;fontStyle=1;verticalAlign=middle;align=left;shadow=0;glass=0;comic=0;opacity=30;fontColor=#808080;" vertex="1" parent="ByNNlt341KOJ8Q6mUIUW-2">
          <mxGeometry x="120" y="120" width="560" height="40" as="geometry" />
        </mxCell>
        <mxCell id="T1WR9YVkstTIkw9Bh6QR-0" value="" style="group;fontSize=10;" vertex="1" connectable="0" parent="ByNNlt341KOJ8Q6mUIUW-2">
          <mxGeometry x="120" y="120" width="560" height="45" as="geometry" />
        </mxCell>
        <mxCell id="T1WR9YVkstTIkw9Bh6QR-2" value="" style="line;strokeWidth=2;html=1;shadow=0;glass=0;comic=0;fillColor=none;fontSize=10;fontColor=#CCCCCC;labelBackgroundColor=none;strokeColor=#CCCCCC;" vertex="1" parent="T1WR9YVkstTIkw9Bh6QR-0">
          <mxGeometry y="35" width="560" height="10" as="geometry" />
        </mxCell>
        <mxCell id="ByNNlt341KOJ8Q6mUIUW-3" value="About" parent="7aSpeAAAiLF63OsOx-cl-0" />
      </root>
    </mxGraphModel>
  </diagram>
</mxfile>
